<?xml version="1.0" encoding="utf-8"?>
<!-- Generator: Adobe Illustrator 24.2.1, SVG Export Plug-In . SVG Version: 6.00 Build 0)  -->
<svg version="1.1" xmlns="http://www.w3.org/2000/svg" xmlns:xlink="http://www.w3.org/1999/xlink" x="0px" y="0px"
	 viewBox="0 0 750 500" style="enable-background:new 0 0 750 500;" xml:space="preserve">
<style type="text/css">
	.st0{fill:#7B9AB2;}
	.st1{clip-path:url(#SVGID_2_);fill:#01498F;}
	.st2{opacity:0.6;}
	.st3{fill:#FFFFFF;}
	.st4{fill:#F2F4F8;}
	.st5{fill:#E4EAF1;}
	.st6{fill:#D7DFEA;}
	.st7{fill:#C9D5E3;}
	.st8{fill:#BCCADC;}
	.st9{fill:#AEC0D5;}
	.st10{fill:#A1B5CE;}
	.st11{fill:#93ABC7;}
	.st12{fill:#86A0BF;}
	.st13{fill:#7995B8;}
	.st14{fill:#6B8BB1;}
	.st15{fill:#5E80AA;}
	.st16{fill:#5076A3;}
	.st17{fill:#436B9C;}
	.st18{fill:#356195;}
	.st19{fill:#28568E;}
	.st20{clip-path:url(#SVGID_6_);fill:#8FABC4;}
	.st21{opacity:0.49;clip-path:url(#SVGID_6_);fill:url(#SVGID_7_);}
	.st22{clip-path:url(#SVGID_6_);fill:#01498F;}
	.st23{clip-path:url(#SVGID_6_);fill:#004180;}
	.st24{opacity:0.49;clip-path:url(#SVGID_6_);fill:url(#SVGID_8_);}
	.st25{opacity:0.17;clip-path:url(#SVGID_6_);fill:url(#SVGID_9_);}
	.st26{opacity:0.49;clip-path:url(#SVGID_6_);fill:url(#SVGID_10_);}
	.st27{opacity:0.49;clip-path:url(#SVGID_6_);fill:url(#SVGID_11_);}
	.st28{clip-path:url(#SVGID_6_);fill:none;stroke:#B8FAFF;stroke-width:0.25;stroke-miterlimit:10;}
</style>
<g id="BACKGROUND">
	<g>
		<g>
			<g>
				<rect x="-0.43" y="-0.06" class="st0" width="750" height="500"/>
			</g>
		</g>
		<g>
			<defs>
				<rect id="SVGID_1_" x="-0.43" y="-0.06" width="750" height="500"/>
			</defs>
			<clipPath id="SVGID_2_">
				<use xlink:href="#SVGID_1_"  style="overflow:visible;"/>
			</clipPath>
			<path class="st1" d="M797.41,318.57c8.04-19.61,10.8-40.08,8.93-59.82c-2.89-30.49-1.93-61.25,4.1-91.28
				c14.39-71.7-22.98-147.07-94.57-176.43c-62.62-25.68-131.88-8.02-175.09,38.61c-22.53,24.31-52.07,41.28-84.79,46.56
				c-35.32,5.7-66.93,29.1-81.5,64.63c-16.96,41.36-5.23,87.09,24.22,116.31c27.6,27.38,43.43,64.64,43.58,103.52
				c0.23,61.36,36.47,120.49,97.54,145.53c84.74,34.75,177.47-10.07,207.24-90.79c9.63-26.11,22.49-50.85,38.07-73.92
				C789.93,334.43,794.05,326.77,797.41,318.57z"/>
		</g>
		<g class="st2">
			<path class="st3" d="M71.15,449.7v-394h619.52c8,0,14.48,6.48,14.48,14.48V449.7c0,8-6.48,14.48-14.48,14.48H85.64
				C77.64,464.19,71.15,457.7,71.15,449.7z"/>
			<path class="st4" d="M71.96,56.36h618c7.5,0,13.58,7.33,13.58,14.83v376.78c0,7.5-6.08,14.83-13.58,14.83H86.88
				c-7.5,0-14.92-6.08-14.92-13.58V56.36z"/>
			<path class="st5" d="M72.77,57.03h616.47c7,0,12.67,8.18,12.67,15.18v374.04c0,7-5.67,15.18-12.67,15.18H88.13
				c-7,0-15.36-5.67-15.36-12.67V57.03z"/>
			<path class="st6" d="M73.57,57.69h614.95c6.5,0,11.77,9.04,11.77,15.53v371.3c0,6.5-5.27,15.54-11.77,15.54H89.38
				c-6.5,0-15.8-5.27-15.8-11.77V57.69z"/>
			<path class="st7" d="M74.38,58.35h613.43c6,0,10.86,9.89,10.86,15.88v368.55c0,6-4.86,15.89-10.86,15.89H90.62
				c-6,0-16.24-4.86-16.24-10.86V58.35z"/>
			<path class="st8" d="M75.19,59.01h611.91c5.5,0,9.96,10.74,9.96,16.23v365.81c0,5.5-4.46,16.24-9.96,16.24H91.87
				c-5.5,0-16.69-4.46-16.69-9.96V59.01z"/>
			<path class="st9" d="M75.99,59.68h610.38c5,0,9.05,11.59,9.05,16.59v363.07c0,5-4.05,16.59-9.05,16.59H93.12
				c-5,0-17.13-4.05-17.13-9.05V59.68z"/>
			<path class="st10" d="M76.8,60.34h608.86c4.5,0,8.15,12.44,8.15,16.94V437.6c0,4.5-3.65,16.94-8.15,16.94H94.36
				c-4.5,0-17.57-3.65-17.57-8.15V60.34z"/>
			<path class="st11" d="M77.6,61h607.34c4,0,7.24,13.29,7.24,17.29v357.58c0,4-3.24,17.29-7.24,17.29H95.61
				c-4,0-18.01-3.24-18.01-7.24V61z"/>
			<path class="st12" d="M78.41,61.66h605.82c3.5,0,6.34,14.14,6.34,17.64v354.84c0,3.5-2.84,17.64-6.34,17.64H96.86
				c-3.5,0-18.45-2.84-18.45-6.34V61.66z"/>
			<path class="st13" d="M79.22,62.33h604.29c3,0,5.43,14.99,5.43,17.99v352.1c0,3-2.43,17.99-5.43,17.99H98.1
				c-3,0-18.89-2.43-18.89-5.43V62.33z"/>
			<path class="st14" d="M80.02,62.99h602.77c2.5,0,4.53,15.84,4.53,18.34v349.36c0,2.5-2.03,18.34-4.53,18.34H99.35
				c-2.5,0-19.33-2.03-19.33-4.53V62.99z"/>
			<path class="st15" d="M80.83,63.65h601.25c2,0,3.62,16.69,3.62,18.69v346.62c0,2-1.62,18.7-3.62,18.7H100.6
				c-2,0-19.77-1.62-19.77-3.62V63.65z"/>
			<path class="st16" d="M81.63,64.31h599.73c1.5,0,2.72,17.54,2.72,19.04v343.87c0,1.5-1.22,19.05-2.72,19.05H101.84
				c-1.5,0-20.21-1.22-20.21-2.72V64.31z"/>
			<path class="st17" d="M82.44,64.98h598.2c1,0,1.81,18.39,1.81,19.39V425.5c0,1-0.81,19.4-1.81,19.4H103.09
				c-1,0-20.65-0.81-20.65-1.81V64.98z"/>
			<path class="st18" d="M83.25,65.64h596.68c0.5,0,0.91,19.24,0.91,19.74v338.39c0,0.5-0.41,19.75-0.91,19.75H104.34
				c-0.5,0-21.09-0.41-21.09-0.91V65.64z"/>
			<rect x="84.05" y="66.3" class="st19" width="595.16" height="375.84"/>
		</g>
	</g>
</g>
<g id="OBJECTS">
	<g>
		<path class="st3" d="M671.67,442.75H78.33c-6.48,0-11.73-5.25-11.73-11.73V68.98c0-6.48,5.25-11.73,11.73-11.73h593.34
			c6.48,0,11.73,5.25,11.73,11.73v362.04C683.4,437.5,678.15,442.75,671.67,442.75z"/>
		<g>
			<defs>
				<path id="SVGID_3_" d="M671.67,442.75H78.33c-6.48,0-11.73-5.25-11.73-11.73V68.98c0-6.48,5.25-11.73,11.73-11.73h593.34
					c6.48,0,11.73,5.25,11.73,11.73v362.04C683.4,437.5,678.15,442.75,671.67,442.75z"/>
			</defs>
			<clipPath id="SVGID_4_">
				<use xlink:href="#SVGID_3_"  style="overflow:visible;"/>
			</clipPath>
		</g>
		<g>
			<defs>
				<path id="SVGID_5_" d="M671.67,442.75H78.33c-6.48,0-11.73-5.25-11.73-11.73V68.98c0-6.48,5.25-11.73,11.73-11.73h593.34
					c6.48,0,11.73,5.25,11.73,11.73v362.04C683.4,437.5,678.15,442.75,671.67,442.75z"/>
			</defs>
			<clipPath id="SVGID_6_">
				<use xlink:href="#SVGID_5_"  style="overflow:visible;"/>
			</clipPath>
			<rect x="54.43" y="362.6" class="st20" width="653.55" height="90.71"/>
			<linearGradient id="SVGID_7_" gradientUnits="userSpaceOnUse" x1="594.4149" y1="-7.51" x2="594.4149" y2="459.0057">
				<stop  offset="0" style="stop-color:#FFFFFF"/>
				<stop  offset="0.0514" style="stop-color:#E9E9E9"/>
				<stop  offset="0.2025" style="stop-color:#ACACAC"/>
				<stop  offset="0.3526" style="stop-color:#777777"/>
				<stop  offset="0.4982" style="stop-color:#4C4C4C"/>
				<stop  offset="0.6384" style="stop-color:#2B2B2B"/>
				<stop  offset="0.7717" style="stop-color:#131313"/>
				<stop  offset="0.8954" style="stop-color:#050505"/>
				<stop  offset="1" style="stop-color:#000000"/>
			</linearGradient>
			<path class="st21" d="M741.01,379.12c13.7-16.17,22.64-34.79,26.96-54.14c6.67-29.9,17.07-58.85,32.07-85.56
				c35.82-63.76,23.54-146.98-35.5-197.01C712.9-1.34,641.57-5.92,586.08,25.1c-28.93,16.17-62.26,23.2-95.02,18.12
				c-35.36-5.48-72.64,7.02-97.46,36.32c-28.9,34.11-31.86,81.23-12.86,118.1c17.81,34.56,21.36,74.89,9.5,111.91
				c-18.72,58.43-2.5,125.86,47.86,168.53c69.88,59.21,171.91,45.2,225.15-22.39c17.22-21.86,37.09-41.43,59.03-58.56
				C729,391.89,735.28,385.88,741.01,379.12z"/>
			<path class="st22" d="M797.84,318.63c8.04-19.61,10.8-40.08,8.93-59.82c-2.89-30.49-1.93-61.25,4.1-91.28
				C825.26,95.83,787.9,20.46,716.3-8.9c-62.62-25.68-131.88-8.02-175.09,38.61c-22.53,24.31-52.07,41.28-84.79,46.56
				c-35.32,5.7-66.93,29.1-81.5,64.63c-16.96,41.36-5.23,87.09,24.22,116.31c27.6,27.38,43.43,64.64,43.58,103.52
				c0.23,61.36,36.47,120.49,97.54,145.53C625,541,717.73,496.19,747.51,415.47c9.63-26.11,22.49-50.85,38.07-73.92
				C790.36,334.49,794.48,326.83,797.84,318.63z"/>
			<path class="st23" d="M810.87,167.53C825.26,95.83,787.9,20.46,716.3-8.9c-62.62-25.68-131.88-8.02-175.09,38.61
				c-22.53,24.31-52.07,41.28-84.79,46.56c-9.91,1.6-19.53,4.59-28.57,8.86c5.45,15.06,14.19,28.87,25.6,40.18
				c27.6,27.38,43.43,64.64,43.58,103.52c0.23,61.36,36.47,120.49,97.54,145.53c84.74,34.75,177.47-10.07,207.24-90.79
				c1.73-4.7,3.57-9.35,5.51-13.95c-0.03-3.62-0.21-7.23-0.55-10.81C803.89,228.32,804.85,197.57,810.87,167.53z"/>
			
				<linearGradient id="SVGID_8_" gradientUnits="userSpaceOnUse" x1="586.7926" y1="230.713" x2="761.0064" y2="404.9268" gradientTransform="matrix(0.9491 0.315 -0.315 0.9491 147.2404 -208.4293)">
				<stop  offset="0" style="stop-color:#FFFFFF"/>
				<stop  offset="0.0514" style="stop-color:#E9E9E9"/>
				<stop  offset="0.2025" style="stop-color:#ACACAC"/>
				<stop  offset="0.3526" style="stop-color:#777777"/>
				<stop  offset="0.4982" style="stop-color:#4C4C4C"/>
				<stop  offset="0.6384" style="stop-color:#2B2B2B"/>
				<stop  offset="0.7717" style="stop-color:#131313"/>
				<stop  offset="0.8954" style="stop-color:#050505"/>
				<stop  offset="1" style="stop-color:#000000"/>
			</linearGradient>
			<path class="st24" d="M648.52,415.17c4.61,6.46,10.54,11.41,17.17,14.75c10.23,5.16,19.78,11.6,28.1,19.49
				c19.84,18.85,51.17,22.04,74.74,5.21c20.62-14.72,28.83-40.18,22.67-63.16c-3.21-11.98-2.7-24.72,2.15-36.14
				c5.24-12.32,4.12-27-4.23-38.7c-9.72-13.62-26.55-19.02-41.67-15.51c-14.18,3.29-29.13,0.87-41.48-6.83
				c-19.48-12.16-45.44-12.47-65.54,1.88c-27.9,19.91-32.19,58.22-12.56,83.75c6.35,8.26,11.62,17.26,15.82,26.8
				C644.99,409.64,646.6,412.47,648.52,415.17z"/>
			
				<linearGradient id="SVGID_9_" gradientUnits="userSpaceOnUse" x1="-0.3493" y1="491.6356" x2="176.5885" y2="668.5733" gradientTransform="matrix(-0.8688 0.4952 -0.4952 -0.8688 833.706 556.8199)">
				<stop  offset="0" style="stop-color:#FFFFFF"/>
				<stop  offset="0.0514" style="stop-color:#E9E9E9"/>
				<stop  offset="0.2025" style="stop-color:#ACACAC"/>
				<stop  offset="0.3526" style="stop-color:#777777"/>
				<stop  offset="0.4982" style="stop-color:#4C4C4C"/>
				<stop  offset="0.6384" style="stop-color:#2B2B2B"/>
				<stop  offset="0.7717" style="stop-color:#131313"/>
				<stop  offset="0.8954" style="stop-color:#050505"/>
				<stop  offset="1" style="stop-color:#000000"/>
			</linearGradient>
			<path class="st25" d="M412.98-6.87c-8.01-0.9-15.78,0.22-22.8,2.95c-10.85,4.22-22.19,7.07-33.8,7.99
				c-27.71,2.19-51.39,23.68-54.69,52.91c-2.88,25.56,10.77,49.06,32.31,60.01c11.23,5.71,20.5,14.75,25.84,26.16
				c5.75,12.32,17.59,21.45,32.1,23.08c16.89,1.9,32.39-7.14,40.01-20.94c7.14-12.94,19.12-22.6,33.32-26.69
				c22.41-6.46,40.27-25.85,43.08-50.79c3.9-34.6-22.12-63.84-54.73-66.35c-10.55-0.81-20.93-2.94-30.98-6.24
				C419.55-5.77,416.33-6.49,412.98-6.87z"/>
			
				<linearGradient id="SVGID_10_" gradientUnits="userSpaceOnUse" x1="344.1041" y1="240.5951" x2="641.5106" y2="538.0016" gradientTransform="matrix(0.725 -0.6887 0.6887 0.725 -212.3138 465.4454)">
				<stop  offset="0" style="stop-color:#FFFFFF"/>
				<stop  offset="0.0514" style="stop-color:#E9E9E9"/>
				<stop  offset="0.2025" style="stop-color:#ACACAC"/>
				<stop  offset="0.3526" style="stop-color:#777777"/>
				<stop  offset="0.4982" style="stop-color:#4C4C4C"/>
				<stop  offset="0.6384" style="stop-color:#2B2B2B"/>
				<stop  offset="0.7717" style="stop-color:#131313"/>
				<stop  offset="0.8954" style="stop-color:#050505"/>
				<stop  offset="1" style="stop-color:#000000"/>
			</linearGradient>
			<path class="st26" d="M547.51,554.02c13.43-1.75,25.66-6.7,36.02-13.98c16.01-11.26,33.38-20.46,51.95-26.63
				c44.35-14.72,74.34-59.32,67.96-108.35c-5.58-42.88-37.31-75.72-76.87-84.93c-20.62-4.8-39.39-15.82-52.69-32.31
				c-14.35-17.8-37.34-27.92-61.67-24.76c-28.32,3.69-49.99,24.68-56.87,50.27c-6.45,23.99-22.11,44.57-43.64,56.96
				c-33.98,19.56-55.31,58.39-49.87,100.21c7.55,58.03,61.78,95.29,116,86.25c17.54-2.92,35.34-3.62,53.07-2.28
				C536.34,554.89,541.89,554.75,547.51,554.02z"/>
			
				<linearGradient id="SVGID_11_" gradientUnits="userSpaceOnUse" x1="674.4675" y1="51.226" x2="971.874" y2="348.6326" gradientTransform="matrix(0.725 -0.6887 0.6887 0.725 -212.3138 465.4454)">
				<stop  offset="0" style="stop-color:#FFFFFF"/>
				<stop  offset="0.0514" style="stop-color:#E9E9E9"/>
				<stop  offset="0.2025" style="stop-color:#ACACAC"/>
				<stop  offset="0.3526" style="stop-color:#777777"/>
				<stop  offset="0.4982" style="stop-color:#4C4C4C"/>
				<stop  offset="0.6384" style="stop-color:#2B2B2B"/>
				<stop  offset="0.7717" style="stop-color:#131313"/>
				<stop  offset="0.8954" style="stop-color:#050505"/>
				<stop  offset="1" style="stop-color:#000000"/>
			</linearGradient>
			<path class="st27" d="M656.6,189.21c13.43-1.75,25.66-6.7,36.02-13.98c16.01-11.26,33.38-20.46,51.95-26.63
				c44.34-14.72,74.34-59.32,67.96-108.35c-5.58-42.88-37.31-75.72-76.87-84.93c-20.62-4.8-39.39-15.82-52.69-32.31
				c-14.35-17.8-37.34-27.92-61.67-24.76c-28.32,3.69-49.99,24.68-56.87,50.27c-6.45,23.99-22.11,44.57-43.64,56.96
				c-33.98,19.56-55.31,58.39-49.87,100.21c7.55,58.03,61.78,95.29,116.01,86.25c17.54-2.92,35.34-3.62,53.07-2.28
				C645.43,190.07,650.99,189.94,656.6,189.21z"/>
			<path class="st28" d="M374.71,81.97c5.73,1.6,11.52,1.69,16.95,0.52c8.4-1.81,17-2.55,25.56-1.86
				c20.44,1.65,40.21-11.23,46.04-32.13c5.1-18.28-2.1-37-16.5-47.5c-7.51-5.48-13.21-13.15-15.75-22.09
				c-2.75-9.65-10.3-17.69-20.68-20.58c-12.08-3.37-24.43,1.4-31.6,10.57c-6.72,8.59-16.58,14.22-27.4,15.54
				c-17.08,2.08-32.36,14.11-37.33,31.95c-6.9,24.74,8.63,49.1,32.09,54.74c7.59,1.83,14.9,4.6,21.84,8.18
				C370.04,80.4,372.31,81.3,374.71,81.97z"/>
			<path class="st28" d="M486.12,516.42c5.73,1.6,11.52,1.69,16.95,0.52c8.4-1.81,17-2.55,25.56-1.86
				c20.44,1.65,40.21-11.23,46.04-32.13c5.1-18.28-2.1-37-16.5-47.5c-7.51-5.48-13.21-13.15-15.75-22.09
				c-2.75-9.65-10.3-17.69-20.68-20.58c-12.08-3.37-24.43,1.4-31.6,10.57c-6.72,8.59-16.58,14.22-27.4,15.54
				c-17.08,2.08-32.36,14.11-37.33,31.95c-6.9,24.74,8.63,49.1,32.09,54.74c7.59,1.83,14.9,4.6,21.84,8.18
				C481.46,514.85,483.73,515.75,486.12,516.42z"/>
		</g>
	</g>
</g>
</svg>
